<svg xmlns="http://www.w3.org/2000/svg" data-name="Layer 1" width="64" height="80">
    <rect id="backgroundrect" width="100%" height="100%" x="0" y="0" fill="none" stroke="none"/>
    <defs>
        <style>.cls-1,.cls-2,.cls-3{fill:#fff}</style>
    </defs>
    <g class="currentLayer">
        <path class="cls-2"
              d="M62.23 28.481a103.41 103.41 0 0 0-1.06-22.54 4.42 4.42 0 0 0-3.58-3.66A109.48 109.48 0 0 0 34.8.001a207.69 207.69 0 0 0-1.38 24.36v3.89l.91.09c.44 0 .61.28.67.72s.12 1 .12 1 16.47-.12 27.11-1.58z"
              id="svg_3"/>
        <path class="cls-2"
              d="M29.13 36.211l-.92-.12c-.44-.05-.62-.28-.67-.73s-.12-1-.12-1a178.53 178.53 0 0 0-26.2 1.51c1.43 8.23 10.84 26.84 26 34.8.75-6.16 1.93-21.19 1.93-30.84v-3.68z"
              id="svg_4"/>
        <path class="cls-2"
              d="M35.17 34.421a179.49 179.49 0 0 1 26.27 1.51c-1.44 8.23-10.84 26.84-26 34.8-.75-6.16-2-21.19-2-30.84v-3.68l.88-.08c.43-.05.61-.28.67-.73s.11-1 .11-1z"
              id="svg_5"/>
        <path class="cls-2"
              d="M14.98 14.091L.15 28.481a194.4 194.4 0 0 0 27.14 1.61h.14s.06-.49.11-1 .23-.68.67-.72l.92-.09zm-1.29 4.23c-.07.24-.06.55.27.55a2.32 2.32 0 0 0 .8-.27v.09a2.7 2.7 0 0 1-1.14.51.31.31 0 0 1-.35-.31c.04-.25.22-.33.42-.57zm4.83 3.45c0 .26-.4.41-.47.53a.34.34 0 0 0-.09.15c-.05-.17 0-.3 0-.42s-.1-.2-.23-.2a.89.89 0 0 0-.38 1.26.69.69 0 0 1 .13-.52.36.36 0 0 0 .08-.24.86.86 0 0 1 .13.44c0 .34-.25.41-.14.67 0 .07.05.12.08.21a1 1 0 0 1 0-.31c0-.08.15-.24.16-.3a.44.44 0 0 0 0-.2.65.65 0 0 1 .18.47.85.85 0 0 1-.15.48 1 1 0 0 0-.08.27c-.07.56-.35.83-.71.83a1 1 0 0 1-.44-.1c0 .72-.83.67-.83 1.14a.62.62 0 0 0 .18.38 3.31 3.31 0 0 1 .55.37.7.7 0 0 0-.48.19c.3.15.29.32.33.54-.29-.14-.43-.06-.5 0s0 .22-.15.36c0-.11-.12-.21-.25-.21a.68.68 0 0 0-.39.3.27.27 0 0 1-.28.3.38.38 0 0 0-.1.35c-.11-.11-.13-.18-.09-.38-.13 0-.11-.17-.07-.26-.08.07-.15.16-.33.07a.34.34 0 0 0-.17.26c0-.3 0-.4.1-.44a.24.24 0 0 1 .13-.27v-.06a.25.25 0 0 1-.22-.1c-.1 0-.23.1-.25.16a.45.45 0 0 1 .12-.4c.11-.23.32-.27.45-.14a.7.7 0 0 0 .42.15.52.52 0 0 0 .37-.2.38.38 0 0 0 .07-.11c0-.09.11-.19-.07-.42s-.49-.52-.5-.76a1 1 0 0 1 .36-.8h-.14c-.26 0-.28-.16-.54-.16a.34.34 0 0 0-.31.36.5.5 0 0 0 .09.31.53.53 0 0 1 .09.38.41.41 0 0 0-.55-.06.53.53 0 0 1-.23.36.37.37 0 0 0-.63-.14c0 .07-.06.22-.26.22h-.17a.64.64 0 0 0-.18.26.44.44 0 0 1 .07-.36c0-.07 0-.24.08-.29a.3.3 0 0 1-.42 0c-.08 0-.15.06-.23.22a.57.57 0 0 1 .17-.4c0-.12.17-.23.35-.19v-.06c0-.06 0 0 0 0s-.22 0-.21-.24a.27.27 0 0 0-.26.07.37.37 0 0 1 .33-.24c0-.08.16-.09.23-.09a.21.21 0 0 1 .22.14.75.75 0 0 0 .67.29.25.25 0 0 0 .25-.26c0-.16-.26-.62-.26-.83a.84.84 0 0 1 .62-.6 2.4 2.4 0 0 1 1.11.31c.25 0 .28 0 .31-.08-.36-.45-.58-.44-.93-.67a.76.76 0 0 1-.29-.51c-.21.05-.41.33-.51.51a.27.27 0 0 0-.21-.14c-.17 0-.29.22-.37.41a.46.46 0 0 0-.43-.41c-.14 0-.3 0-.34.14a.32.32 0 0 1-.37.18c-.08 0-.14.07-.19.3-.07-.29 0-.34 0-.41a.28.28 0 0 1 .07-.3c-.11 0-.28 0-.32-.07s-.17 0-.27.17a.46.46 0 0 1 .24-.38.32.32 0 0 1 .3-.15v-.05a.26.26 0 0 1-.13-.25c-.09-.11-.2 0-.28 0 .15-.16.33-.22.44-.15s.35 0 .38.18.28.19.55.19c.59 0 1.52-.55 1.45-1a.86.86 0 0 0-.26 0c-.32 0-.71.39-1 .4.15-.18 0-.35.14-.48a3.17 3.17 0 0 1-.67.07.56.56 0 0 0 .19-.37c0-.08 0-.24-.35-.24a.77.77 0 0 1-.2 0c-.08 0-.31 0-.31-.2a.33.33 0 0 0-.32.1.59.59 0 0 1 .33-.3.21.21 0 0 1 .19-.13v-.07c0-.07-.27-.06-.27-.25s-.14-.1-.32-.05c.23-.17.31-.14.39-.12a.27.27 0 0 1 .36 0 .33.33 0 0 1 0-.3c0-.13-.07-.17-.19-.2a.51.51 0 0 1 .45.16.28.28 0 0 1 .24.24c0 .24-.25.41.24.67a6.28 6.28 0 0 0 .59.22 4.25 4.25 0 0 0 .6.16c-.08-.13 0-.27-.19-.4a2.08 2.08 0 0 1 .5.07c0-.19 0-.19-.11-.31h.35c.56.06.57-.22.68-.58a1.66 1.66 0 0 0-.82.26 1.29 1.29 0 0 0 0-.28.19.19 0 0 1 .2-.2h.18c.12 0 .29-.14.21-.42s-.14-.21-.25-.18l-.23.07a.22.22 0 0 0-.13.21l-.07-.2-.07-.15v-.06a.2.2 0 0 1 .15-.28l.36-.09c.2-.06.26-.13.3-.24s.07-.15.25-.15h.47c.28 0 .58-.22.48-.46.19 0 .27.34.22.46a1.21 1.21 0 0 0 .46-.12.8.8 0 0 1-.28.53.88.88 0 0 0 .48-.08 1.23 1.23 0 0 1-.32.54.79.79 0 0 1 .54.54c-.2-.08-.31 0-.48 0a5.07 5.07 0 0 1 .54.98 3.47 3.47 0 0 0-.43-.21c.15.34-.06.67 0 .85a.8.8 0 0 1-.3-.23 1.32 1.32 0 0 0-.13.75 1.64 1.64 0 0 0-.31-.22 1.1 1.1 0 0 0-.21.79 3.54 3.54 0 0 0 .44 1.53 2.87 2.87 0 0 1 .29.83.51.51 0 0 0 .49.43.47.47 0 0 0 .43-.48c0-.47-.58-.77-.58-1.61 0-.55.43-.82.44-1.17s-.28-.12-.49-.26c.27 0 .43-.35.67-.34s.27.13.28.24a.71.71 0 0 1-.12.38 1 1 0 0 0 .35-.67c0-.23-.33-.49-.25-.94v-.09c.09.5.81.63.81 1.13s-.41.39-.64.71c.26-.07.55-.02.55.26z"
              id="svg_7"/>
        <path class="cls-2"
              d="M27.77.001a113.84 113.84 0 0 0-22.8 2.28 4.39 4.39 0 0 0-3.53 3.66 95.68 95.68 0 0 0-1.39 19.64c1.47-1.4 15-14.57 15-14.57l14.1 14.08A221.15 221.15 0 0 0 27.77.001zm-21 4.55c-.06.24-.06.55.28.55a2.53 2.53 0 0 0 .82-.27v.09a2.87 2.87 0 0 1-1.16.52c-.27 0-.37-.16-.37-.32s.25-.33.45-.57zm4.93 3.54c0 .26-.39.41-.47.53s-.08.09-.09.16v-.43c0-.12-.1-.2-.24-.2s-.76.5-.43 1.31a.74.74 0 0 1 .14-.53.38.38 0 0 0 .08-.24.78.78 0 0 1 .13.45c0 .34-.25.42-.13.67a1.52 1.52 0 0 0 .08.22 1.3 1.3 0 0 1 0-.31 2.88 2.88 0 0 1 .17-.31.37.37 0 0 0 0-.21.66.66 0 0 1 .19.49 1 1 0 0 1-.15.48.79.79 0 0 0-.08.27c-.08.58-.36.85-.73.85a1.06 1.06 0 0 1-.48-.2c0 .73-.84.67-.84 1.16a.62.62 0 0 0 .18.38c.09.09.43.22.56.38a.75.75 0 0 0-.49.2c.31.15.3.32.34.55-.3-.15-.44-.06-.51 0s-.05.22-.15.37c0-.12-.13-.22-.25-.22a.64.64 0 0 0-.4.3.28.28 0 0 1-.29.31.38.38 0 0 0-.1.35c-.11-.11-.13-.18-.09-.38-.13-.06-.12-.17-.08-.27a.24.24 0 0 1-.33.07.34.34 0 0 0-.17.27c0-.31 0-.41.1-.45a.22.22 0 0 1 .13-.27.35.35 0 0 0 0-.06.23.23 0 0 1-.22-.11.29.29 0 0 0-.26.17.47.47 0 0 1 .24-.39c.11-.22.33-.26.46-.13a.68.68 0 0 0 .42.15.57.57 0 0 0 .38-.2.52.52 0 0 0 .07-.12c0-.09.11-.19-.07-.42s-.5-.53-.51-.78a1 1 0 0 1 .37-.82h-.15c-.26 0-.28-.16-.55-.16a.35.35 0 0 0-.31.37.48.48 0 0 0 .09.31.57.57 0 0 1 .09.39.4.4 0 0 0-.55 0 .61.61 0 0 1-.24.36.38.38 0 0 0-.64-.14c0 .07-.06.22-.27.22h-.17a.61.61 0 0 0-.18.27.44.44 0 0 1 .07-.37c0-.07 0-.25.08-.3a.31.31 0 0 1-.43 0c-.07 0-.15.07-.23.23a.54.54 0 0 1 .17-.41c0-.13.18-.23.35-.2s0 0 0-.06-.22 0-.2-.25a.32.32 0 0 0-.28.08.4.4 0 0 1 .34-.25c0-.08.17-.09.24-.09a.21.21 0 0 1 .18-.04.76.76 0 0 0 .69.29.25.25 0 0 0 .25-.27c0-.16-.27-.62-.27-.83a.86.86 0 0 1 .64-.62c.78 0 1 .32 1.13.32s.28 0 .32-.09c-.37-.45-.61-.44-1-.68a.76.76 0 0 1-.29-.51c-.21.05-.42.34-.53.52a.24.24 0 0 0-.21-.15c-.17 0-.29.23-.38.42-.05-.22-.18-.42-.43-.42a.39.39 0 0 0-.34.15.32.32 0 0 1-.38.17.39.39 0 0 0-.2.31c-.07-.29 0-.34 0-.42a.29.29 0 0 1 .08-.3c-.12 0-.28 0-.33-.07s-.17 0-.28.17a.46.46 0 0 1 .25-.38c0-.11.19-.15.31-.15s0 0 0-.06a.26.26 0 0 1-.12-.26c-.1-.11-.2 0-.29 0 .15-.15.33-.21.45-.14.26-.09.36 0 .38.18s.29.19.57.19c.59 0 1.54-.55 1.47-1a.68.68 0 0 0-.27 0c-.32 0-.71.39-1 .4.16-.18.06-.36.15-.49a3.14 3.14 0 0 1-.68.08.6.6 0 0 0 .19-.38c0-.08 0-.25-.35-.25a.87.87 0 0 1-.21 0c-.08 0-.31 0-.31-.2a.35.35 0 0 0-.33.1.61.61 0 0 1 .34-.3.25.25 0 0 1 .19-.14v-.06c0-.06-.28-.06-.27-.26s-.14-.1-.33 0c.23-.18.32-.15.39-.12a.26.26 0 0 1 .37 0v-.05a.35.35 0 0 1 0-.31c0-.14-.06-.18-.19-.21a.53.53 0 0 1 .45.17.28.28 0 0 1 .25.24c0 .25-.26.42.25.68a4 4 0 0 0 .6.23 4.31 4.31 0 0 0 .61.16c-.09-.13 0-.27-.19-.41a2.09 2.09 0 0 1 .5.08c0-.2 0-.2-.11-.32h.35c.58.06.59-.23.7-.59a1.65 1.65 0 0 0-.84.27.94.94 0 0 0 0-.29.19.19 0 0 1 .2-.2h.18c.12 0 .3-.14.22-.42a.22.22 0 0 0-.26-.18 1.83 1.83 0 0 0-.23.07c-.1 0-.13.11-.14.21 0-.05 0-.17-.07-.21a.69.69 0 0 1-.06-.14v-.07a.2.2 0 0 1 .16-.28l.36-.09a.39.39 0 0 0 .3-.24c.05-.11.08-.16.26-.16h.36c.28 0 .59-.23.49-.47.19 0 .27.35.22.47a1.21 1.21 0 0 0 .46-.12.71.71 0 0 1-.28.53.84.84 0 0 0 .49-.07 1.38 1.38 0 0 1-.32.55.78.78 0 0 1 .54.55c-.2-.09-.31 0-.48 0a5.09 5.09 0 0 1 .58 1.19 4.37 4.37 0 0 0-.43-.21c.15.35-.07.69 0 .87a.93.93 0 0 1-.3-.24 1.46 1.46 0 0 0-.13.76 2.28 2.28 0 0 0-.31-.22 1.1 1.1 0 0 0-.22.8 3.58 3.58 0 0 0 .45 1.56 2.93 2.93 0 0 1 .29.85.52.52 0 0 0 .5.43.47.47 0 0 0 .44-.48c0-.48-.59-.79-.59-1.64 0-.56.43-.84.44-1.19s-.27-.12-.49-.26c.28-.06.44-.36.69-.35a.24.24 0 0 1 .27.24.75.75 0 0 1-.11.39 1 1 0 0 0 .34-.68c0-.24-.33-.51-.24-1a.3.3 0 0 1 0-.09c.1.51.83.64.83 1.15s-.41.39-.65.73c.31-.11.6-.06.6.26zm8.89-4.49c-.07.25-.07.57.29.57a2.63 2.63 0 0 0 .85-.28v.09a3 3 0 0 1-1.21.54.32.32 0 0 1-.38-.33c.08-.26.28-.35.45-.59zm5.12 3.65c0 .27-.42.43-.5.56a.43.43 0 0 0-.09.16c-.06-.18 0-.32 0-.45s-.1-.21-.25-.21a1 1 0 0 0-.44 1.37.76.76 0 0 1 .13-.55.35.35 0 0 0 .09-.25.86.86 0 0 1 .14.47c0 .36-.26.43-.14.7a2.16 2.16 0 0 0 .08.23 1 1 0 0 1 0-.33c0-.09.16-.25.17-.32a.4.4 0 0 0 0-.22.71.71 0 0 1 .19.51 1 1 0 0 1-.15.5.9.9 0 0 0-.09.29c-.08.6-.37.88-.76.88a1 1 0 0 1-.58-.14c0 .77-.87.71-.87 1.21a.67.67 0 0 0 .18.4c.1.09.45.22.58.4a.71.71 0 0 0-.5.2c.31.16.3.34.34.57-.31-.15-.45-.06-.53 0s0 .23-.15.39c0-.12-.13-.23-.27-.23a.68.68 0 0 0-.41.32.3.3 0 0 1-.3.32.37.37 0 0 0-.1.37c-.12-.12-.14-.19-.1-.4-.14-.06-.12-.18-.08-.29a.27.27 0 0 1-.35.07.4.4 0 0 0-.18.28c0-.32 0-.43.11-.47a.23.23 0 0 1 .14-.28.14.14 0 0 0 0-.07.26.26 0 0 1-.23-.11c-.1 0-.24.11-.27.18a.47.47 0 0 1 .25-.4c.12-.24.35-.28.48-.14a.74.74 0 0 0 .44.15.56.56 0 0 0 .4-.21.52.52 0 0 0 .07-.12c0-.09.12-.2-.07-.44s-.52-.55-.53-.81a1 1 0 0 1 .38-.85h-.15c-.27 0-.3-.17-.58-.17a.36.36 0 0 0-.32.38.52.52 0 0 0 .09.33.5.5 0 0 1 .09.4.42.42 0 0 0-.57 0 .63.63 0 0 1-.25.38.39.39 0 0 0-.67-.15c0 .07-.06.23-.27.23s-.12 0-.18-.05a.54.54 0 0 0-.19.28.46.46 0 0 1 .08-.39c0-.07 0-.26.08-.31v-.05a.31.31 0 0 1-.44 0c-.08 0-.16.07-.24.24a.56.56 0 0 1 .17-.52c0-.13.18-.24.36-.2v-.07c0-.07 0 0 0 0s-.23 0-.22-.26a.26.26 0 0 0-.28.08.39.39 0 0 1 .35-.26c0-.08.17-.09.24-.09a.23.23 0 0 1 .24.14.78.78 0 0 0 .71.31.27.27 0 0 0 .27-.28c0-.17-.29-.65-.29-.87a.9.9 0 0 1 .67-.65c.81 0 1 .34 1.17.34s.29-.05.33-.09c-.38-.47-.62-.46-1-.71a.8.8 0 0 1-.3-.54c-.23.05-.45.35-.55.54a.26.26 0 0 0-.22-.15c-.18 0-.31.24-.4.44 0-.23-.19-.44-.45-.44a.38.38 0 0 0-.35.16.36.36 0 0 1-.4.18c-.08 0-.15.07-.21.31-.07-.3 0-.35 0-.43a.32.32 0 0 1 .07-.32c-.12 0-.29 0-.34-.07s-.17 0-.29.18a.51.51 0 0 1 .26-.4c0-.11.2-.16.32-.16v-.06a.25.25 0 0 1-.13-.26c-.1-.12-.21-.05-.3 0 .16-.17.34-.23.47-.16.27-.09.37 0 .39.19s.31.2.59.2c.62 0 1.61-.58 1.54-1a.75.75 0 0 0-.28 0c-.33 0-.75.42-1.07.42.16-.18.06-.37.15-.5a4.5 4.5 0 0 1-.71.07.59.59 0 0 0 .2-.39c0-.09 0-.25-.37-.25a.87.87 0 0 1-.21 0c-.09 0-.33 0-.33-.22a.4.4 0 0 0-.34.11.63.63 0 0 1 .35-.32.26.26 0 0 1 .21-.14.56.56 0 0 0 0-.07c-.13 0-.29-.06-.28-.27s-.15-.1-.35 0c.25-.18.34-.15.42-.12a.27.27 0 0 1 .38 0v-.06a.31.31 0 0 1 0-.31c0-.15-.07-.19-.21-.22a.56.56 0 0 1 .48.17.32.32 0 0 1 .26.26c0 .25-.27.43.25.7a4.92 4.92 0 0 0 .63.24 3.82 3.82 0 0 0 .63.17c-.09-.14 0-.28-.2-.43a2.26 2.26 0 0 1 .53.08c0-.2 0-.2-.12-.33h.37c.6.06.61-.23.73-.61a1.73 1.73 0 0 0-.88.28 1 1 0 0 0 0-.3.2.2 0 0 1 .21-.21h.19c.13 0 .31-.15.23-.44 0-.14-.15-.23-.27-.19s-.11 0-.24.07a.24.24 0 0 0-.15.22s-.05-.18-.07-.21l-.07-.16v-.06a.21.21 0 0 1 .16-.3l.38-.09c.21-.06.27-.14.31-.25s.08-.16.27-.16h.56c.29 0 .61-.23.5-.49.21 0 .29.36.24.49a1.31 1.31 0 0 0 .48-.12.72.72 0 0 1-.3.55.89.89 0 0 0 .51-.07 1.32 1.32 0 0 1-.33.56.84.84 0 0 1 .56.58c-.2-.09-.32 0-.5 0a5.41 5.41 0 0 1 .61 1.25 2.7 2.7 0 0 0-.45-.22c.16.36-.07.71 0 .9a1 1 0 0 1-.31-.24 1.42 1.42 0 0 0-.14.79 2.09 2.09 0 0 0-.33-.24 1.21 1.21 0 0 0-.22.84 3.63 3.63 0 0 0 .47 1.62 3.29 3.29 0 0 1 .3.89.54.54 0 0 0 .52.45.49.49 0 0 0 .46-.5c0-.51-.61-.83-.61-1.71 0-.58.44-.87.46-1.24s-.29-.13-.52-.28c.29 0 .46-.37.72-.36s.27.14.28.25a.84.84 0 0 1-.11.41 1.14 1.14 0 0 0 .36-.71c0-.25-.35-.53-.26-1a.56.56 0 0 1 0-.1c.11.54.87.68.87 1.21s-.43.4-.68.75c.27-.23.58-.18.58.12z"
              id="svg_8"/>
    </g>
    <script xmlns="" public-path="moz-extension://19fa3f3d-b475-4b13-9073-e6194c96c137/"/>
</svg>